<?xml version="1.0" encoding="UTF-8" standalone="no"?>
<svg
   width="1920.0001"
   height="1080"
   viewBox="0 0 508.00003 285.75001"
   version="1.1"
   id="svg8"
   inkscape:version="1.2 (dc2aedaf03, 2022-05-15)"
   sodipodi:docname="logo_sertipy.svg"
   xml:space="preserve"
   xmlns:inkscape="http://www.inkscape.org/namespaces/inkscape"
   xmlns:sodipodi="http://sodipodi.sourceforge.net/DTD/sodipodi-0.dtd"
   xmlns="http://www.w3.org/2000/svg"
   xmlns:svg="http://www.w3.org/2000/svg"
   xmlns:rdf="http://www.w3.org/1999/02/22-rdf-syntax-ns#"
   xmlns:cc="http://creativecommons.org/ns#"
   xmlns:dc="http://purl.org/dc/elements/1.1/"><defs
     id="defs2"><inkscape:path-effect
       effect="fillet_chamfer"
       id="path-effect2784"
       is_visible="true"
       lpeversion="1"
       nodesatellites_param="F,0,0,1,0,0.90397003,0,1 @ F,0,0,1,0,0.83597028,0,1 @ F,0,0,1,0,0,0,1"
       unit="px"
       method="auto"
       mode="F"
       radius="0"
       chamfer_steps="1"
       flexible="false"
       use_knot_distance="true"
       apply_no_radius="true"
       apply_with_radius="true"
       only_selected="false"
       hide_knots="false" /><inkscape:path-effect
       effect="fillet_chamfer"
       id="path-effect1325"
       is_visible="true"
       lpeversion="1"
       nodesatellites_param="F,0,0,1,0,0,0,1 @ F,0,0,1,0,0,0,1 @ F,0,1,1,0,0.52384595,0,1 @ F,0,0,1,0,0.52384595,0,1 @ F,0,1,1,0,0.52384595,0,1"
       unit="px"
       method="auto"
       mode="F"
       radius="0"
       chamfer_steps="1"
       flexible="false"
       use_knot_distance="true"
       apply_no_radius="true"
       apply_with_radius="true"
       only_selected="false"
       hide_knots="false" /><inkscape:path-effect
       effect="fillet_chamfer"
       id="path-effect1323"
       is_visible="true"
       lpeversion="1"
       nodesatellites_param="F,0,0,1,0,0,0,1 @ F,0,0,1,0,0,0,1 @ F,0,0,1,0,0,0,1 @ F,0,0,1,0,0,0,1 @ F,0,0,1,0,0,0,1 @ F,0,0,1,0,0,0,1 @ F,0,0,1,0,0,0,1 @ F,0,0,1,0,0,0,1 @ F,0,0,1,0,0,0,1 @ F,0,0,1,0,0,0,1 @ F,0,0,1,0,0,0,1 @ F,0,0,1,0,0,0,1 @ F,0,0,1,0,0,0,1 @ F,0,0,1,0,0,0,1 @ F,0,0,1,0,0,0,1 @ F,0,0,1,0,0,0,1 @ F,0,0,1,0,0,0,1 @ F,0,0,1,0,0,0,1 @ F,0,0,1,0,0,0,1 @ F,0,0,1,0,0,0,1 @ F,0,0,1,0,0,0,1 @ F,0,0,1,0,0,0,1 @ F,0,0,1,0,0,0,1 @ F,0,0,1,0,0,0,1 @ F,0,0,1,0,0,0,1 @ F,0,0,1,0,0,0,1 @ F,0,0,1,0,0,0,1 @ F,0,0,1,0,0,0,1 @ F,0,0,1,0,0,0,1 @ F,0,0,1,0,0,0,1 @ F,0,0,1,0,0,0,1 @ F,0,0,1,0,2.045006,0,1 @ F,0,0,1,0,0,0,1 @ F,0,0,1,0,0,0,1"
       unit="px"
       method="auto"
       mode="F"
       radius="0"
       chamfer_steps="1"
       flexible="false"
       use_knot_distance="true"
       apply_no_radius="true"
       apply_with_radius="true"
       only_selected="false"
       hide_knots="false" /><inkscape:path-effect
       effect="fillet_chamfer"
       id="path-effect6614"
       is_visible="true"
       lpeversion="1"
       nodesatellites_param="F,0,0,1,0,0,0,1 @ F,0,1,1,0,3.83908,0,1 @ F,0,0,1,0,3.83908,0,1 @ F,0,0,1,0,0,0,1"
       unit="px"
       method="auto"
       mode="F"
       radius="0"
       chamfer_steps="1"
       flexible="false"
       use_knot_distance="true"
       apply_no_radius="true"
       apply_with_radius="true"
       only_selected="false"
       hide_knots="false" /><inkscape:path-effect
       effect="fillet_chamfer"
       id="path-effect6609"
       is_visible="true"
       lpeversion="1"
       nodesatellites_param="F,0,0,1,0,0,0,1 @ F,0,0,1,0,3.4646349,0,1 @ F,0,0,1,0,3.8268931,0,1 @ F,0,0,1,0,0,0,1 @ F,0,0,1,0,1.480419,0,1 @ F,0,0,1,0,2.3007768,0,1 @ F,0,0,1,0,1.480419,0,1 @ F,0,0,1,0,0,0,1 @ F,0,0,1,0,3.4646349,0,1 @ F,0,0,1,0,3.8268931,0,1 @ F,0,0,1,0,3.4646349,0,1 @ F,0,0,1,0,2.1516254,0,1 @ F,0,0,1,0,5.1235372,0,1 @ F,0,0,1,0,2.3007768,0,1 @ F,0,0,1,0,0,0,1 @ F,0,0,1,0,0,0,1 @ F,0,0,1,0,7.5570909,0,1 @ F,0,0,1,0,0,0,1"
       unit="px"
       method="auto"
       mode="F"
       radius="0"
       chamfer_steps="1"
       flexible="false"
       use_knot_distance="true"
       apply_no_radius="true"
       apply_with_radius="true"
       only_selected="false"
       hide_knots="false" /><rect
       x="55.280472"
       y="108.15821"
       width="218.76926"
       height="212.02507"
       id="rect4281" /><rect
       x="55.280472"
       y="108.15821"
       width="218.76926"
       height="212.02507"
       id="rect4307" /><clipPath
       clipPathUnits="userSpaceOnUse"
       id="clipPath6545-1-7-7-2"><g
         transform="matrix(0.89557866,0,0,0.86003176,141.38702,10.658446)"
         style="font-style:normal;font-variant:normal;font-weight:normal;font-stretch:normal;font-size:204.944px;font-family:Loma;-inkscape-font-specification:Loma;text-align:start;text-anchor:start;fill:#000000;fill-opacity:1;stroke:none"
         id="g6547-7-5-5-7"><path
           inkscape:connector-curvature="0"
           d="m -34.65358,93.920919 c 9.740054,2.868752 16.778315,7.438621 21.114803,13.709611 4.33625,6.27112 6.5044345,13.40945 6.5045603,21.41501 -1.258e-4,13.87643 -4.7701313,24.38378 -14.3100323,31.5221 -9.47341,7.07163 -22.982868,10.60744 -40.528413,10.60744 H -116.4109 V 26.073353 h 54.538238 c 14.543444,1.45e-4 26.118213,3.2691 34.724344,9.806875 8.672632,6.538046 13.009002,15.644421 13.00912,27.319153 -1.18e-4,2.268362 -0.300329,4.636687 -0.900631,7.104981 -0.533825,2.401782 -1.501169,5.070317 -2.902035,8.005612 -1.334382,2.868768 -3.435853,5.704086 -6.30442,8.505964 -2.868783,2.735332 -6.337878,5.103657 -10.407296,7.104981"
           id="path6549-4-3-3-0"
           sodipodi:nodetypes="cssccccccscccc" /></g></clipPath><rect
       x="-435.98776"
       y="106.7629"
       width="225.42825"
       height="17.486601"
       id="rect3312" /><rect
       x="-435.98776"
       y="106.7629"
       width="225.42825"
       height="17.486601"
       id="rect4355" /><rect
       x="-435.98776"
       y="106.7629"
       width="110.56767"
       height="49.781898"
       id="rect4200" /><rect
       x="-435.98776"
       y="106.7629"
       width="110.56767"
       height="49.781898"
       id="rect4358" /><rect
       x="-435.98776"
       y="106.7629"
       width="109.97662"
       height="49.781898"
       id="rect4208" /><rect
       x="-435.98776"
       y="106.7629"
       width="109.97662"
       height="49.781898"
       id="rect4361" /><rect
       x="-435.98776"
       y="106.7629"
       width="218.73235"
       height="113.17781"
       id="rect6424" /><rect
       x="-435.98776"
       y="106.7629"
       width="218.73235"
       height="113.17781"
       id="rect3604" /><rect
       x="-435.98776"
       y="106.7629"
       width="218.73238"
       height="41.490849"
       id="rect6255" /><rect
       x="-435.98776"
       y="106.7629"
       width="218.73238"
       height="41.490849"
       id="rect3607" /><clipPath
       clipPathUnits="userSpaceOnUse"
       id="clipPath5121"><rect
         style="fill:#9fced3;fill-opacity:1;stroke:none;stroke-width:0.79375;stroke-linecap:round;stroke-linejoin:round;stop-color:#000000"
         id="rect5123"
         width="152.15303"
         height="152.15303"
         x="2096.355"
         y="534.07642"
         inkscape:export-xdpi="395.5737"
         inkscape:export-ydpi="395.5737"
         rx="5.291667"
         ry="5.291667" /></clipPath><clipPath
       clipPathUnits="userSpaceOnUse"
       id="clipPath11690"><rect
         style="opacity:1;fill:#ffffff;fill-opacity:1;stroke-width:1.05833;stroke-linecap:square;stroke-linejoin:round;stop-color:#000000"
         id="rect11692"
         width="158.75"
         height="105.83335"
         x="-7.5769901e-07"
         y="331.68188" /></clipPath></defs><sodipodi:namedview
     id="base"
     pagecolor="#ffffff"
     bordercolor="#666666"
     borderopacity="1.0"
     inkscape:pageopacity="0"
     inkscape:pageshadow="2"
     inkscape:zoom="0.46113673"
     inkscape:cx="850.07326"
     inkscape:cy="547.55994"
     inkscape:document-units="px"
     inkscape:current-layer="layer1"
     showgrid="false"
     units="px"
     inkscape:window-width="1920"
     inkscape:window-height="1055"
     inkscape:window-x="0"
     inkscape:window-y="0"
     inkscape:window-maximized="1"
     inkscape:document-rotation="0"
     inkscape:snap-page="false"
     showguides="true"
     inkscape:guide-bbox="true"
     inkscape:showpageshadow="2"
     inkscape:pagecheckerboard="0"
     inkscape:deskcolor="#7d7d7d"
     inkscape:lockguides="true"><inkscape:grid
       type="xygrid"
       id="grid2823"
       spacingx="5.2916668"
       spacingy="5.2916668"
       originx="0"
       originy="-299.26525" /></sodipodi:namedview><metadata
     id="metadata5"><rdf:RDF><cc:Work
         rdf:about=""><dc:format>image/svg+xml</dc:format><dc:type
           rdf:resource="http://purl.org/dc/dcmitype/StillImage" /></cc:Work></rdf:RDF></metadata><g
     inkscape:label="Layer 1"
     inkscape:groupmode="layer"
     id="layer1"
     transform="translate(0,-331.68188)"><rect
       style="fill:#ffffff;fill-opacity:1;stroke-width:1.05833;stroke-linecap:square;stroke-linejoin:round;stop-color:#000000"
       id="rect4434"
       width="508.00003"
       height="285.75"
       x="0"
       y="331.68188"
       inkscape:export-filename="draft_logo_sertipy_1.png"
       inkscape:export-xdpi="307.20001"
       inkscape:export-ydpi="307.20001" /><g
       id="g1282"
       transform="matrix(0.80968597,0,0,0.80968597,31.73,126.77945)"
       style="stroke-width:1.23505"><g
         id="g8845"
         transform="matrix(3.172638,0,0,3.172638,-23.703093,-796.67845)"
         style="stroke-width:0.389277"><path
           id="path4353"
           style="fill:#e53900;fill-opacity:1;stroke-width:1.02997;stroke-linecap:round;stroke-linejoin:round;stop-color:#000000"
           d="m 30.997576,376.9773 h 2.363881 v 4.02332 a 0.17086437,0.17086437 0 0 1 -0.262891,0.14396 l -0.656156,-0.41944 a 0.48810373,0.48810373 0 0 0 -0.525781,0 l -0.656163,0.41944 a 0.17086484,0.17086484 0 0 1 -0.26289,-0.14396 z"
           sodipodi:nodetypes="cccccc" /><path
           id="path4355"
           style="fill:#2373c3;fill-opacity:1;stroke:none;stroke-width:1.02997;stroke-linecap:square;stroke-linejoin:round;stroke-dasharray:none;stroke-opacity:1;stop-color:#000000"
           d="m 25.010613,364.58367 c -1.464085,0 -2.868202,0.5816 -3.903479,1.61685 l -1.534987,1.53499 -4.844415,4.84441 c -0.805979,0.80591 -0.805979,2.11263 0,2.91854 l 15.840155,15.84015 c 0.890124,0.88996 2.333129,0.88996 3.223253,0 L 46.633045,378.4967 v 5.42185 c 1.8e-5,0.56465 -0.2243,1.10619 -0.6236,1.50544 l -12.860989,12.86098 c -0.535156,0.53508 -1.402729,0.53508 -1.937885,0 L 20.195747,387.27015 c -0.399294,-0.39925 -0.623618,-0.94078 -0.6236,-1.50543 v -2.27001 l -4.457825,2.22907 c -0.908016,0.45401 -1.104417,1.66417 -0.38659,2.38204 l 15.840155,15.84016 c 0.890124,0.88996 2.333129,0.88996 3.223253,0 l 15.840154,-15.84016 c 0.934313,-0.93428 1.45923,-2.20144 1.459266,-3.52274 v -9.26222 c 3e-5,-0.82059 -0.325925,-1.60757 -0.906152,-2.18782 l -0.08772,-0.0877 c -1.191783,-1.19187 -3.124147,-1.19187 -4.31593,0 l -12.632299,12.6323 c -0.535156,0.53507 -1.402729,0.53507 -1.937885,0 l -11.638424,-11.63842 3.151843,-3.15184 6.272595,6.27259 c 1.757846,1.75797 4.608011,1.75797 6.365857,0 l 8.563143,-8.56314 a 1.2180533,1.2180533 0 0 0 0,-1.72259 l -0.673692,-0.67369 c -1.035277,-1.03525 -2.439394,-1.61685 -3.903479,-1.61685 z" /><path
           style="fill:#ffd862;fill-opacity:1;stroke-width:0.411991;stroke-linecap:square;stroke-linejoin:round;stop-color:#000000"
           d="m 36.903832,373.5721 3.166776,-3.16677 c 0.194453,-0.19446 0.176138,-0.49289 -0.06964,-0.61517 -0.526841,-0.2621 -1.465121,-0.5128 -2.335029,0.3571 -0.915879,0.91588 -1.106955,2.45568 -1.141007,3.2674 -0.01245,0.29695 0.168633,0.3677 0.3789,0.15744 z"
           id="path4357"
           sodipodi:nodetypes="cccc" /><path
           id="path4359"
           style="fill:#264c73;fill-opacity:1;stroke-width:0.411991;stroke-linecap:square;stroke-linejoin:round;stop-color:#000000"
           d="m 21.462312,369.62559 0.533105,1.99022 0.728555,-0.72856 z m -1.890181,4.4135 -1.26166,1.26166 1.990215,-0.5331 z m 27.691572,3.82684 -0.630676,0.63068 v 3e-4 1.72274 z m -16.053152,7.81158 1.944661,1.94497 -0.442612,-1.65194 c -0.498483,0.21036 -1.095869,0.11309 -1.502049,-0.29303 z m 1.921576,12.62214 c -0.40876,0.39591 -1.002286,0.48696 -1.496508,0.27333 l -0.448153,1.67256 1.944661,-1.94466 z" /><path
           style="fill:#ffd862;fill-opacity:1;stroke-width:0.411991;stroke-linecap:square;stroke-linejoin:round;stop-color:#000000"
           d="m 27.4552,373.5721 -3.166775,-3.16677 c -0.194453,-0.19446 -0.176138,-0.49289 0.06964,-0.61517 0.526841,-0.2621 1.465121,-0.5128 2.335029,0.3571 0.915879,0.91588 1.106955,2.45568 1.141006,3.2674 0.01245,0.29695 -0.168633,0.3677 -0.3789,0.15744 z"
           id="path4369"
           sodipodi:nodetypes="cccc" /></g><g
         aria-label="sertipy"
         id="text9575"
         style="font-weight:bold;font-size:109.368px;line-height:1.25;font-family:'Exo 2';-inkscape-font-specification:'Exo 2 Bold';letter-spacing:0px;word-spacing:0px;stroke-width:0.326771"><path
           d="m 196.83749,397.99266 q 3.71851,0 7.98386,0.21873 4.37472,0.21874 8.5307,0.65621 4.15599,0.32811 7.43703,0.98431 l -0.87495,8.64008 q -5.24966,-0.10937 -10.49932,-0.21874 -5.1403,-0.21874 -10.17123,-0.21874 -4.48408,0 -7.10892,0.21874 -2.51546,0.21874 -3.60914,1.31242 -0.98431,1.09368 -0.98431,3.71851 0,3.17167 1.74989,4.26535 1.74988,0.98431 5.68713,1.96862 l 14.65531,3.39041 q 6.67145,1.64052 9.73375,5.03093 3.17168,3.28104 3.17168,10.17122 0,6.67145 -2.51547,10.17123 -2.40609,3.3904 -7.76513,4.70282 -5.24966,1.20305 -13.45226,1.20305 -3.17167,0 -9.40565,-0.32811 -6.23397,-0.21873 -13.671,-1.42178 l 0.87495,-8.64007 q 2.18736,0 5.14029,0.10937 3.06231,0.10937 6.45272,0.10937 3.49977,0 7.10892,0 5.7965,0 8.8588,-0.32811 3.17167,-0.43747 4.37472,-1.64052 1.20305,-1.31241 1.20305,-3.71851 0,-3.0623 -2.07799,-4.04662 -1.96863,-1.09368 -5.90587,-2.07799 l -14.32721,-3.49977 q -4.92156,-1.31242 -7.65576,-3.28104 -2.7342,-2.078 -3.93725,-5.03093 -1.20305,-3.06231 -1.20305,-7.43703 0,-5.90587 2.18736,-9.18691 2.29673,-3.28104 7.10892,-4.59345 4.92156,-1.31242 12.90543,-1.20305 z"
           style="font-weight:600;-inkscape-font-specification:'Exo 2 Semi-Bold'"
           id="path1324" /><path
           d="m 258.41166,397.99266 q 13.01479,0 18.70193,4.59345 5.68713,4.48409 5.7965,13.3429 0.10937,7.32766 -3.49978,11.15554 -3.49977,3.71851 -11.70237,3.71851 H 237.0849 v -8.2026 h 27.0139 q 3.71851,0 4.70282,-1.96863 1.09368,-1.96862 1.09368,-4.81219 -0.10937,-4.48409 -2.62483,-6.23397 -2.4061,-1.74989 -8.31197,-1.74989 -5.1403,0 -7.98386,1.42178 -2.84357,1.42179 -4.04662,5.1403 -1.09368,3.71851 -1.09368,10.71806 0,7.43703 1.42178,11.48364 1.42179,4.04662 4.70283,5.57777 3.28104,1.42178 8.74944,1.42178 4.04661,0 9.29628,-0.3281 5.35903,-0.3281 10.28059,-0.87494 l 1.31241,8.42133 q -2.95293,1.20305 -6.78081,1.96862 -3.82788,0.76558 -7.98386,1.09368 -4.04662,0.43748 -7.65576,0.43748 -9.84312,0 -15.85836,-2.84357 -5.90588,-2.95294 -8.64008,-9.18691 -2.62483,-6.23398 -2.62483,-16.0771 0,-10.60869 2.62483,-16.7333 2.7342,-6.23398 8.53071,-8.85881 5.90587,-2.62483 15.20215,-2.62483 z"
           style="font-weight:600;-inkscape-font-specification:'Exo 2 Semi-Bold'"
           id="path1326" /><path
           d="m 305.11159,399.30507 1.74989,10.49933 1.20305,1.53115 v 41.66921 H 294.831 v -53.69969 z m 26.24832,-1.31241 -1.31242,12.24921 h -3.82788 q -4.26535,0 -8.64007,1.42179 -4.37472,1.42178 -10.9368,4.26535 l -0.87494,-7.76513 q 5.68713,-4.81219 11.59301,-7.43702 5.90587,-2.7342 11.37427,-2.7342 z"
           style="font-weight:600;-inkscape-font-specification:'Exo 2 Semi-Bold'"
           id="path1328" /><path
           d="m 358.04554,383.99356 v 52.82474 q 0,3.28104 1.42178,4.81219 1.53115,1.42178 5.1403,1.42178 h 7.43702 l 1.42179,9.29628 q -1.85926,0.54684 -4.48409,0.98431 -2.62483,0.43748 -5.1403,0.54684 -2.51546,0.21874 -4.26535,0.21874 -6.99955,0 -10.9368,-3.71851 -3.82788,-3.82788 -3.82788,-10.9368 v -55.44957 z m 15.96773,15.31151 v 9.18692 H 335.297 v -8.64008 l 10.49932,-0.54684 z"
           style="font-weight:600;-inkscape-font-specification:'Exo 2 Semi-Bold'"
           id="path1330" /><path
           d="m 397.30858,399.30507 v 53.69969 h -13.12416 v -53.69969 z m -3.60915,-23.29538 q 3.93725,0 3.93725,3.93725 v 6.12461 q 0,3.93724 -3.93725,3.93724 h -5.90587 q -3.93725,0 -3.93725,-3.93724 v -6.12461 q 0,-3.93725 3.93725,-3.93725 z"
           style="font-weight:600;-inkscape-font-specification:'Exo 2 Semi-Bold'"
           id="path1332" /><path
           d="m 445.97732,397.99266 q 10.06186,0 14.32721,7.32765 4.37472,7.32766 4.37472,21.2174 0,10.60869 -2.29673,16.7333 -2.18736,6.01524 -6.67145,8.64007 -4.48408,2.51546 -11.37427,2.51546 -5.4684,0 -10.71806,-1.53115 -5.1403,-1.64052 -9.51502,-5.03093 l 0.87495,-6.56207 q 4.26535,1.20304 7.65576,2.07799 3.3904,0.87494 7.43702,0.87494 4.04662,0 6.34334,-1.31241 2.4061,-1.42179 3.49978,-5.24967 1.09368,-3.82788 1.09368,-11.04617 0,-7.10892 -0.98431,-11.04616 -0.98431,-3.93725 -3.28104,-5.4684 -2.18736,-1.64052 -5.79651,-1.64052 -3.93724,0 -7.43702,1.74988 -3.49978,1.64052 -8.09323,4.92156 l -1.53115,-6.99955 q 2.51546,-2.95293 6.01524,-5.24966 3.60914,-2.29673 7.76512,-3.60915 4.15599,-1.31241 8.31197,-1.31241 z m -22.63917,1.31241 1.31241,10.38996 1.20305,1.53116 v 34.66965 l -0.54684,1.31242 q 0.3281,3.17167 0.43747,6.34334 0.10937,3.28104 0.10937,6.67145 v 14.10847 h -13.23353 v -75.02645 z"
           style="font-weight:600;-inkscape-font-specification:'Exo 2 Semi-Bold'"
           id="path1334" /><path
           d="m 527.92284,399.30507 -20.12371,55.34021 q -1.42178,3.82788 -3.60914,7.54639 -2.07799,3.82788 -5.35903,6.89019 -3.28104,3.0623 -7.76513,4.81219 -4.48409,1.74989 -10.38996,1.31241 l -1.09368,-7.87449 q 6.56208,-1.85926 10.17122,-5.03093 3.71852,-3.17167 5.79651,-8.09323 l 2.95293,-6.99955 q 0.98432,-2.4061 1.85926,-5.4684 0.98431,-3.17167 1.64052,-5.4684 L 513.705,399.30507 Z m -43.30972,0 11.92111,36.96639 q 0.54684,1.85925 0.98431,3.82788 0.43747,1.85925 0.76558,3.71851 h 2.7342 l -4.15599,9.18691 h -3.49977 q -1.53115,0 -2.7342,-0.87494 -1.20305,-0.87495 -1.64052,-2.4061 l -18.48319,-50.41865 z"
           style="font-weight:600;-inkscape-font-specification:'Exo 2 Semi-Bold'"
           id="path1336" /></g></g></g></svg>
